<svg width="21" height="21" viewBox="0 0 21 21" fill="none" xmlns="http://www.w3.org/2000/svg">
<path d="M14.5696 2.94666C12.9252 2.94666 11.4658 3.59574 10.477 4.71138C9.48821 3.59574 8.0288 2.94666 6.38439 2.94666C4.95217 2.94839 3.5791 3.51811 2.56636 4.53084C1.55363 5.54358 0.983911 6.91665 0.982178 8.34887C0.982178 14.27 9.64291 19.0011 10.0112 19.2C10.1544 19.277 10.3144 19.3174 10.477 19.3174C10.6396 19.3174 10.7996 19.277 10.9427 19.2C11.3111 19.0011 19.9718 14.27 19.9718 8.34887C19.9701 6.91665 19.4003 5.54358 18.3876 4.53084C17.3749 3.51811 16.0018 2.94839 14.5696 2.94666ZM14.1202 14.5991C12.9802 15.5664 11.7616 16.4371 10.477 17.202C9.19236 16.4371 7.97374 15.5664 6.83376 14.5991C5.06003 13.0774 2.94662 10.757 2.94662 8.34887C2.94662 7.43712 3.30881 6.56271 3.95352 5.918C4.59823 5.27329 5.47264 4.9111 6.38439 4.9111C7.84136 4.9111 9.06095 5.6805 9.56761 6.91974C9.64135 7.10039 9.76723 7.25499 9.92919 7.36381C10.0912 7.47263 10.2819 7.53075 10.477 7.53075C10.6721 7.53075 10.8628 7.47263 11.0248 7.36381C11.1867 7.25499 11.3126 7.10039 11.3864 6.91974C11.893 5.6805 13.1126 4.9111 14.5696 4.9111C15.4813 4.9111 16.3557 5.27329 17.0004 5.918C17.6452 6.56271 18.0073 7.43712 18.0073 8.34887C18.0073 10.757 15.8939 13.0774 14.1202 14.5991Z" fill="#1C2731"/>
</svg>
