<svg width="34" height="34" viewBox="0 0 34 34" fill="none" xmlns="http://www.w3.org/2000/svg">
<path d="M22.6667 4.25C24.5453 4.25 26.347 4.99628 27.6753 6.32466C29.0037 7.65304 29.75 9.45472 29.75 11.3333V22.6667C29.75 24.5453 29.0037 26.347 27.6753 27.6753C26.347 29.0037 24.5453 29.75 22.6667 29.75H11.3333C9.45472 29.75 7.65304 29.0037 6.32466 27.6753C4.99628 26.347 4.25 24.5453 4.25 22.6667V11.3333C4.25 9.45472 4.99628 7.65304 6.32466 6.32466C7.65304 4.99628 9.45472 4.25 11.3333 4.25H22.6667ZM17 11.3333C15.4971 11.3333 14.0558 11.9304 12.9931 12.9931C11.9304 14.0558 11.3333 15.4971 11.3333 17C11.3333 18.5029 11.9304 19.9442 12.9931 21.0069C14.0558 22.0696 15.4971 22.6667 17 22.6667C18.5029 22.6667 19.9442 22.0696 21.0069 21.0069C22.0696 19.9442 22.6667 18.5029 22.6667 17C22.6667 15.4971 22.0696 14.0558 21.0069 12.9931C19.9442 11.9304 18.5029 11.3333 17 11.3333ZM17 14.1667C17.7514 14.1667 18.4721 14.4652 19.0035 14.9965C19.5348 15.5279 19.8333 16.2486 19.8333 17C19.8333 17.7514 19.5348 18.4721 19.0035 19.0035C18.4721 19.5348 17.7514 19.8333 17 19.8333C16.2486 19.8333 15.5279 19.5348 14.9965 19.0035C14.4652 18.4721 14.1667 17.7514 14.1667 17C14.1667 16.2486 14.4652 15.5279 14.9965 14.9965C15.5279 14.4652 16.2486 14.1667 17 14.1667ZM23.375 9.20833C22.9993 9.20833 22.6389 9.35759 22.3733 9.62327C22.1076 9.88894 21.9583 10.2493 21.9583 10.625C21.9583 11.0007 22.1076 11.3611 22.3733 11.6267C22.6389 11.8924 22.9993 12.0417 23.375 12.0417C23.7507 12.0417 24.1111 11.8924 24.3767 11.6267C24.6424 11.3611 24.7917 11.0007 24.7917 10.625C24.7917 10.2493 24.6424 9.88894 24.3767 9.62327C24.1111 9.35759 23.7507 9.20833 23.375 9.20833Z" fill="#1C2731"/>
</svg>
