<svg width="21" height="21" viewBox="0 0 21 21" fill="none" xmlns="http://www.w3.org/2000/svg">
<g clip-path="url(#clip0_511_17)">
<path d="M19.7713 5.29913C19.6797 5.1786 19.5615 5.08087 19.4259 5.01357C19.2903 4.94626 19.141 4.91122 18.9896 4.91116H4.9299L4.22025 2.35656C4.16282 2.14972 4.03922 1.96738 3.86834 1.83744C3.69745 1.70751 3.48871 1.63713 3.27404 1.63708H1.63701C1.37651 1.63708 1.12667 1.74057 0.942471 1.92477C0.758269 2.10897 0.654785 2.3588 0.654785 2.61931C0.654785 2.87981 0.758269 3.12964 0.942471 3.31384C1.12667 3.49804 1.37651 3.60153 1.63701 3.60153H2.52755L5.33507 13.7094C5.47025 14.1918 5.75928 14.6168 6.15821 14.9198C6.55713 15.2229 7.0441 15.3873 7.54507 15.3882H15.6337C16.1346 15.3873 16.6216 15.2229 17.0205 14.9198C17.4194 14.6168 17.7085 14.1918 17.8437 13.7094L19.9415 6.15612C19.9812 6.00982 19.9865 5.85633 19.9569 5.70765C19.9274 5.55898 19.8638 5.41916 19.7713 5.29913ZM15.9447 13.1839C15.9258 13.2521 15.8852 13.3124 15.8291 13.3556C15.7731 13.3989 15.7045 13.4228 15.6337 13.4237H7.54343C7.47192 13.4237 7.4024 13.4002 7.3455 13.3569C7.28859 13.3136 7.24743 13.2528 7.2283 13.1839L5.47585 6.8756H17.6971L15.9447 13.1839ZM8.83996 18.0074C8.83996 18.3312 8.74395 18.6477 8.56407 18.9169C8.38419 19.1861 8.12852 19.396 7.82939 19.5199C7.53026 19.6438 7.20111 19.6762 6.88356 19.613C6.566 19.5499 6.27431 19.3939 6.04537 19.165C5.81642 18.9361 5.66051 18.6444 5.59735 18.3268C5.53418 18.0093 5.5666 17.6801 5.6905 17.381C5.81441 17.0818 6.02423 16.8262 6.29344 16.6463C6.56265 16.4664 6.87915 16.3704 7.20293 16.3704C7.63709 16.3704 8.05348 16.5429 8.36049 16.8499C8.66749 17.1569 8.83996 17.5733 8.83996 18.0074ZM17.3525 18.0074C17.3525 18.3312 17.2565 18.6477 17.0767 18.9169C16.8968 19.1861 16.6411 19.396 16.342 19.5199C16.0428 19.6438 15.7137 19.6762 15.3961 19.613C15.0786 19.5499 14.7869 19.3939 14.558 19.165C14.329 18.9361 14.1731 18.6444 14.1099 18.3268C14.0468 18.0093 14.0792 17.6801 14.2031 17.381C14.327 17.0818 14.5368 16.8262 14.806 16.6463C15.0752 16.4664 15.3917 16.3704 15.7155 16.3704C16.1497 16.3704 16.5661 16.5429 16.8731 16.8499C17.1801 17.1569 17.3525 17.5733 17.3525 18.0074Z" fill="#F1EEE4"/>
</g>
<defs>
<clipPath id="clip0_511_17">
<rect width="20.9541" height="20.9541" fill="white"/>
</clipPath>
</defs>
</svg>
